# xmcd
#
# Track frame offsets: 
#        150
#        14287
#        33007
#        47200
#        63327
#        76965
#        88900
#        117650
#        125485
#        145972
#
# Disc length: 2104 seconds
#
# Revision: 4
# Processed by: cddbd v1.5.2PL0 Copyright (c) Steve Scherf et al.
# Submitted via: ExactAudioCopy v0.99pb5
#
DISCID=8608360a
DTITLE=B.B. King - Live At The Regal
DYEAR=1964
DGENRE=Blues
TTITLE0=Every Day I Have The Blues
TTITLE1=Sweet Little Angel
TTITLE2=It's My Own Fault
TTITLE3=How Blue Can You Get?
TTITLE4=Please Love Me
TTITLE5=You Upset Me Baby
TTITLE6=Worry, Worry
TTITLE7=Woke Up This Morning (My Baby's Gone)
TTITLE8=You Done Lost Your Good Thing Now
TTITLE9=Help The Poor
EXTD=YEAR: 1997
EXTT0=
EXTT1=
EXTT2=
EXTT3=
EXTT4=
EXTT5=
EXTT6=
EXTT7=
EXTT8=
EXTT9=
PLAYORDER=
